<svg width="108" height="108" viewBox="0 0 108 108" fill="none" xmlns="http://www.w3.org/2000/svg">
    <!-- 
      Combined Shape:
      1. Pantograph (Top bracket)
      2. Tram Body (Outer rounded rect)
      3. Windshield (Inner rounded rect - creates hole via evenodd)
      4. Headlights (Circles - create holes via evenodd)
    -->
    <path fill-rule="evenodd" clip-rule="evenodd" fill="#000000" d="
        M46 27 V22 H62 V27 H59.5 V24.5 H48.5 V27 H46 Z
        M37 27 H71 C75.42 27 79 30.58 79 35 V73 C79 77.42 75.42 81 71 81 H37 C32.58 81 29 77.42 29 73 V35 C29 30.58 32.58 27 37 27 Z
        M41 33 H67 C69.21 33 71 34.79 71 37 V53 C71 55.21 69.21 57 67 57 H41 C38.79 57 37 55.21 37 53 V37 C37 34.79 38.79 33 41 33 Z
        M41 68 A3 3 0 1 0 41 74 A3 3 0 1 0 41 68 Z
        M67 68 A3 3 0 1 0 67 74 A3 3 0 1 0 67 68 Z"
    />
</svg>
